<svg width="300" height="90" xmlns="http://www.w3.org/2000/svg" preserveAspectRatio="xMidYMid meet">

 <g>
  <title>background</title>
  <rect fill="none" id="canvas_background" height="402" width="582" y="-1" x="-1"/>
 </g>
 <g>
  <title>Layer 1</title>
  <g id="svg_1" fill="#000000" transform="translate(0,90) scale(0.10000000149011612,-0.10000000149011612) ">
   <path fill="#345fea" stroke="#fff" id="svg_2" d="m2624,673c4,-5 13,-8 19,-8c7,0 13,-19 15,-42c4,-57 22,-55 22,2c0,35 3,43 15,39c8,-4 15,-1 15,5c0,6 -19,11 -47,11c-25,0 -43,-3 -39,-7z"/>
   <path fill="#345fea" stroke="#fff" id="svg_3" d="m2730,630c0,-57 20,-69 21,-12l1,37l15,-37c19,-46 27,-47 43,-8c18,42 34,50 25,12c-3,-18 -2,-33 4,-37c7,-4 11,11 11,44c0,59 -20,69 -40,21c-7,-16 -15,-30 -19,-30c-4,0 -12,14 -18,30c-6,17 -18,30 -27,30c-13,0 -16,-11 -16,-50z"/>
   <path fill="#345fea" stroke="#fff" id="svg_4" d="m211,594c-24,-20 -31,-34 -31,-63c0,-45 15,-68 80,-117c64,-49 85,-83 69,-118c-15,-32 -60,-52 -87,-37c-11,6 -29,22 -40,36c-16,21 -22,22 -37,11c-16,-11 -14,-15 18,-49c30,-32 40,-37 80,-37c34,0 53,6 75,25c66,55 48,122 -53,203c-66,52 -83,94 -49,119c26,19 49,16 82,-12c21,-18 32,-21 40,-13c25,25 -38,78 -92,78c-13,0 -38,-12 -55,-26z"/>
   <path fill="#345fea" stroke="#fff" id="svg_5" d="m2366,605c-47,-17 -94,-59 -112,-102c-31,-72 -10,-187 43,-235c51,-46 170,-63 236,-34c31,15 77,49 77,59c0,17 -35,13 -65,-7c-86,-58 -205,-32 -250,54c-23,44 -19,121 8,160c39,58 71,75 141,75c53,0 68,-4 99,-27c48,-37 92,-24 49,15c-56,50 -152,69 -226,42z"/>
   <path fill="#345fea" stroke="#fff" id="svg_6" d="m460,420l0,-190l110,0c91,0 110,3 110,15c0,12 -17,15 -90,15l-90,0l0,75l0,74l87,3c74,3 88,6 91,21c3,15 -6,17 -87,17l-91,0l0,60l0,60l90,0c83,0 90,1 90,20c0,19 -7,20 -110,20l-110,0l0,-190z"/>
   <path fill="#345fea" stroke="#fff" id="svg_7" d="m740,421l0,-191l104,0c112,0 145,12 189,71c44,60 39,181 -10,240c-41,48 -78,62 -185,67l-98,5l0,-192zm218,122c48,-36 65,-68 65,-125c1,-104 -44,-146 -169,-155l-74,-6l0,158l0,158l76,-5c53,-4 83,-11 102,-25z"/>
   <path fill="#345fea" stroke="#fff" id="svg_8" d="m1120,420l0,-190l110,0c91,0 110,3 110,15c0,12 -17,15 -90,15l-90,0l0,75l0,74l87,3c74,3 88,6 91,21c3,15 -6,17 -87,17l-91,0l0,60l0,60l90,0c83,0 90,1 90,20c0,19 -7,20 -110,20l-110,0l0,-190z"/>
   <path fill="#345fea" stroke="#fff" id="svg_9" d="m1440,602c0,-6 -11,-87 -25,-182c-30,-205 -29,-190 -7,-190c16,0 21,14 31,98c24,188 19,186 92,35c35,-73 67,-133 71,-133c4,0 38,60 75,133l67,132l7,-45c3,-25 12,-84 19,-132c10,-76 15,-88 31,-88c17,0 18,5 13,37c-3,21 -16,108 -28,193l-22,155l-80,-158l-79,-157l-75,151c-70,141 -90,174 -90,151z"/>
   <path fill="#345fea" stroke="#fff" id="svg_10" d="m1991,529c-21,-46 -62,-132 -89,-191c-50,-105 -50,-108 -28,-108c19,0 28,11 49,60l26,60l84,0l83,0l29,-60c22,-47 34,-60 51,-60l22,0l-28,58c-15,31 -53,113 -85,182c-31,69 -61,129 -66,134c-5,5 -25,-26 -48,-75zm78,-137c-16,-2 -44,-2 -62,0l-34,3l30,64l30,64l33,-64l32,-64l-29,-3z"/>
  </g>
 </g>
</svg>