<?xml version="1.0" encoding="UTF-8"?>
<svg width="512px" height="512px" viewBox="0 0 512 512" version="1.1" xmlns="http://www.w3.org/2000/svg" xmlns:xlink="http://www.w3.org/1999/xlink">
    <title>Bajaj_1</title>
    <g id="Bajaj_1" stroke="none" stroke-width="1" fill="none" fill-rule="evenodd">
        <g id="bajaj-seeklogo.com" transform="translate(0.000000, 0.000000)">
            <g id="background">
                <rect id="canvas_background" x="0" y="0" width="512" height="512"></rect>
            </g>
            <g id="Layer-1" transform="translate(50.586826, 52.630739)" fill="#869AB8" fill-rule="nonzero">
                <path d="M47.0010926,62.0925149 L167.325035,114.157438 C167.325035,114.157438 183.772203,106.892565 199.786515,100.031297 C199.786515,100.031297 202.816274,98.4168802 202.816274,95.1880508 C202.816274,95.1880508 202.816274,91.5556126 198.920881,89.9411959 C198.920881,89.9411959 144.818389,66.5321599 90.7159352,43.5267362 L187.667558,1.95552268 L195.891162,0.341105948 L203.681909,1.95552268 L349.109402,64.5141415 C349.109402,64.5141415 363.825262,70.9718044 363.825262,79.4474891 C363.825262,79.4474891 363.825262,87.9231775 349.109402,93.9772352 L235.277755,142.813321 L349.109402,191.649408 C349.109402,191.649408 363.825262,197.703469 363.825262,206.986361 C363.825262,206.986361 363.825262,215.05844 349.109402,221.919708 L203.681909,283.671124 C203.681909,283.671124 200.652189,286.092747 195.891162,286.092747 L187.667558,283.671124 L90.7159352,242.503516 L198.920881,196.492657 L202.816274,191.245803 C202.816274,191.245803 202.816274,188.824179 199.786515,185.998951 L167.325035,172.276415 L47.0010926,224.341335 L47.0010926,165.415147 L99.3723166,142.813321 L47.0010926,121.018705 L47.0010926,62.0925139" id="path5888"></path>
                <g id="svg_1" transform="translate(0.000000, 334.690619)" stroke="#869AB8" stroke-linecap="round" stroke-linejoin="round" stroke-width="1.114807">
                    <path d="M247.400352,0.372131513 L247.400352,51.6962966 C247.400352,51.6962966 247.400352,72.636554 227.011625,72.8418511 L193.836771,72.8418511 C193.836771,72.8418511 189.34434,72.636554 187.443693,68.5306216 L181.568984,57.4446014 L219.063485,57.4446014 C219.063485,57.4446014 227.35721,57.2393062 227.35721,49.6433289 L227.35721,0.372131513 L247.400352,0.372131513" id="path5874"></path>
                    <path d="M145.111192,0.372131513 L182.778477,72.8418517 L159.279611,72.8418517 L152.886548,59.7028647 L118.329402,59.7028647 L123.858541,48.6168461 C123.858541,48.6168461 125.931973,44.3056165 130.251604,44.3056165 L145.456762,44.3056165 L132.152251,17.6170529 L105.37046,72.8418517 L81.8716094,72.8418517 L119.538894,0.372131513 L145.111192,0.372131513" id="path5876"></path>
                    <path d="M308.739289,0.372131513 L346.061005,72.8418517 L322.907723,72.8418517 L316.34186,59.7028647 L281.61193,59.7028647 L287.313854,48.6168461 C287.313854,48.6168461 289.56007,44.3056165 293.879717,44.3056165 L309.084859,44.3056165 L295.780364,17.6170529 L268.653004,72.8418517 L245.154137,72.8418517 L282.821422,0.372131513 L308.73929,0.372131513" id="path5878"></path>
                    <path d="M410.682881,0.372131513 L410.682881,51.6962966 C410.682881,51.6962966 410.510096,72.636554 390.639738,72.8418511 L357.119299,72.8418511 C357.119299,72.8418511 352.454083,72.636554 350.553436,68.5306216 L344.851512,57.4446014 L382.518797,57.4446014 C382.518797,57.4446014 390.985307,57.2393062 390.985307,49.6433289 L390.985307,0.372131513 L410.682881,0.372131513" id="path5880"></path>
                    <path d="M0.14346475,0.369643429 L0.14346475,72.8402053 L20.1858172,72.8402053 L20.1858172,42.0461344 L20.1858172,15.1538352 L54.7440947,15.1538352 C61.8283116,15.1538352 61.8301093,21.3114982 61.8301251,21.3114982 C61.8301251,27.0598045 54.7441105,27.0605689 54.7440947,27.0605689 L32.4543642,27.0605689 C28.3075173,27.0605689 26.0609604,30.9623405 26.0609604,30.9623405 L20.1858177,42.0461344 L54.4002151,42.0461344 C61.8300014,42.0461344 61.8301098,49.6425021 61.8301251,49.6425042 C61.8301251,57.2384815 54.4001993,57.4460459 54.4002151,57.4460474 L32.4543642,57.4460474 C28.3075173,57.2407523 26.0609604,61.5492379 26.0609604,61.5492379 L20.1858177,72.8402053 L54.7440952,72.8402053 C84.1176706,72.6349081 84.119856,53.1356829 84.119856,53.1356829 C84.119856,40.4072888 70.2965418,35.8884709 70.2965418,35.8884709 C84.119856,31.7825385 84.119856,19.0556083 84.119856,19.0556063 C84.119856,0.168311569 54.7441105,0.369643429 54.7440952,0.369643429 L0.14346475,0.369643429 L0.14346475,0.369643429 Z" id="path5884"></path>
                </g>
            </g>
        </g>
    </g>
</svg>