<?xml version="1.0" encoding="UTF-8"?>
<svg width="512px" height="512px" viewBox="0 0 512 512" version="1.1" xmlns="http://www.w3.org/2000/svg" xmlns:xlink="http://www.w3.org/1999/xlink">
    <title>Briggs &amp; Stratton</title>
    <g id="Briggs-&amp;-Stratton" stroke="none" stroke-width="1" fill="none" fill-rule="evenodd">
        <g id="briggs---stratton-vector-logo" transform="translate(1.000000, 110.000000)">
            <polyline id="Fill-74" fill="#94ACCF" points="501.124036 140.390023 255.378686 0.379841202 250.626503 3.06611628 9.35470589 140.526956 9.35470589 151.704289 255.341773 291.852595 260.095146 289.16632 501.124036 151.842413 501.124036 140.390023"></polyline>
            <polyline id="Fill-75" fill="#869AB8" points="255.378686 11.3428442 255.378686 11.3214111 255.359634 11.3321276 255.341773 11.3214111 255.341773 11.3428442 26.7226174 141.596227 483.997841 141.596227 255.378686 11.3428442"></polyline>
            <polyline id="Fill-76" fill="#869AB8" points="255.378686 280.889592 255.378686 280.909834 255.359634 280.900308 255.341773 280.909834 255.341773 280.889592 26.7226174 150.6374 483.997841 150.6374 255.378686 280.889592"></polyline>
            <polyline id="Fill-77" fill="#94ACCF" points="477.914429 99.6791426 30.0602189 99.6791426 0.544533321 118.229444 0.544533321 172.270487 27.200098 192.554484 483.520361 192.554484 510.174735 172.270487 510.174735 118.229444 480.66024 99.6791426 477.914429 99.6791426"></polyline>
            <polyline id="Fill-78" fill="#FFFFFE" points="477.914429 109.204941 32.8048395 109.204941 10.0703315 123.493638 10.0703315 167.549264 30.4114827 183.028686 480.307785 183.028686 500.648937 167.549264 500.648937 123.493638 477.914429 109.204941"></polyline>
            <path d="M33.7514657,157.276881 L41.770997,157.276881 C44.7311388,157.276881 47.3090579,156.325492 47.3090579,152.811663 C47.3090579,149.344273 45.1121707,147.967795 41.913884,147.967795 L33.7514657,147.967795 L33.7514657,157.276881 Z M33.7514657,142.886972 L41.3411454,142.886972 C43.9666935,142.886972 45.924245,141.69982 45.924245,138.850415 C45.924245,135.62117 43.4427746,134.956745 40.7695975,134.956745 L33.7514657,134.956745 L33.7514657,142.886972 Z M26.257044,129.161488 L42.2961066,129.161488 C48.7879381,129.161488 53.179331,131.25121 53.179331,137.568005 C53.179331,140.892508 51.5087442,143.219185 48.5497931,144.643291 C52.7030411,145.830444 54.8034796,149.012061 54.8034796,153.239133 C54.8034796,160.126286 48.9320158,163.069757 42.7735873,163.069757 L26.257044,163.069757 L26.257044,129.161488 L26.257044,129.161488 Z" id="Fill-80" fill="#869AB8"></path>
            <path d="M64.9698877,144.501595 L73.179935,144.501595 C76.5222994,144.501595 78.3357732,143.076298 78.3357732,139.657727 C78.3357732,136.380852 76.5222994,134.956745 73.179935,134.956745 L64.9698877,134.956745 L64.9698877,144.501595 Z M57.475466,129.161488 L75.8531121,129.161488 C81.9639116,129.161488 85.8301949,133.388561 85.8301949,138.518203 C85.8301949,142.50594 84.2072371,145.498232 80.4362117,147.018787 L80.4362117,147.114045 C84.1119791,148.063053 85.1621983,151.625701 85.401534,155.044272 C85.544421,157.181623 85.496792,161.170551 86.8327852,163.069757 L79.3383635,163.069757 C78.4310312,160.932406 78.5262892,157.655532 78.1452573,154.949014 C77.6201477,151.386366 76.2365255,149.820563 72.4655001,149.820563 L64.9698877,149.820563 L64.9698877,163.069757 L57.475466,163.069757 L57.475466,129.161488 L57.475466,129.161488 Z" id="Fill-81" fill="#869AB8"></path>
            <polygon id="Fill-82" fill="#869AB8" points="89.5524006 163.069757 97.0468223 163.069757 97.0468223 129.161488 89.5524006 129.161488"></polygon>
            <path d="M125.879032,159.223716 C123.254674,162.595849 119.817052,163.877069 116.523507,163.877069 C105.973686,163.877069 99.7676284,156.0421 99.7676284,146.257914 C99.7676284,136.191527 105.973686,128.355367 116.523507,128.355367 C123.492819,128.355367 130.079909,132.628878 130.891983,140.322151 L123.730964,140.322151 C122.872452,136.570177 120.055197,134.623342 116.523507,134.623342 C109.79234,134.623342 107.26205,140.322151 107.26205,146.257914 C107.26205,151.909094 109.79234,157.606712 116.523507,157.606712 C121.392381,157.606712 124.209636,154.995453 124.638297,150.295662 L117.096246,150.295662 L117.096246,144.738549 L131.417093,144.738549 L131.417093,163.069757 L126.643477,163.069757 L125.879032,159.223716" id="Fill-83" fill="#869AB8"></path>
            <path d="M159.723002,159.223716 C157.098645,162.595849 153.661022,163.877069 150.366287,163.877069 C139.817656,163.877069 133.611598,156.0421 133.611598,146.257914 C133.611598,136.191527 139.817656,128.355367 150.366287,128.355367 C157.33679,128.355367 163.923879,132.628878 164.735953,140.322151 L157.574934,140.322151 C156.715231,136.570177 153.899167,134.623342 150.366287,134.623342 C143.63631,134.623342 141.10602,140.322151 141.10602,146.257914 C141.10602,151.909094 143.63631,157.606712 150.366287,157.606712 C155.236351,157.606712 158.053606,154.995453 158.482267,150.295662 L150.940216,150.295662 L150.940216,144.738549 L165.259872,144.738549 L165.259872,163.069757 L160.486257,163.069757 L159.723002,159.223716" id="Fill-84" fill="#869AB8"></path>
            <path d="M174.042658,151.813836 C174.042658,156.325492 177.575538,158.084193 181.584709,158.084193 C184.210257,158.084193 188.220618,157.323319 188.220618,153.855929 C188.220618,150.200404 183.112409,149.581227 178.100648,148.253569 C173.040068,146.923529 167.933049,144.976694 167.933049,138.61227 C167.933049,131.679871 174.521329,128.355367 180.677376,128.355367 C187.790766,128.355367 194.330227,131.441726 194.330227,139.276695 L187.075141,139.276695 C186.835805,135.1937 183.924483,134.149434 180.343974,134.149434 C177.95657,134.149434 175.188135,135.146071 175.188135,137.995475 C175.188135,140.607925 176.811093,140.940137 185.355734,143.123927 C187.838395,143.740722 195.475704,145.308907 195.475704,153.002179 C195.475704,159.223716 190.559201,163.877069 181.298935,163.877069 C173.756884,163.877069 166.691123,160.172724 166.786381,151.813836 L174.042658,151.813836" id="Fill-85" fill="#869AB8"></path>
            <path d="M220.249923,133.293303 C218.628156,133.293303 217.194524,134.528084 217.194524,136.285594 C217.194524,138.422945 218.580527,139.799423 219.868892,141.366417 C221.777623,140.131635 223.352952,138.992112 223.352952,136.523739 C223.352952,134.765039 221.92051,133.293303 220.249923,133.293303 Z M217.863711,148.109491 C215.476308,149.156138 213.090095,150.960086 213.090095,153.714233 C213.090095,156.183796 215.38105,158.177069 217.958969,158.177069 C220.394001,158.177069 222.112217,156.944669 223.687546,155.185968 L217.863711,148.109491 Z M227.266865,159.697625 C224.546058,162.356513 221.539478,163.735372 217.673195,163.735372 C211.514767,163.735372 206.645893,159.982208 206.645893,153.572536 C206.645893,148.823926 210.274031,145.59349 214.283202,143.740722 C212.469728,141.509304 211.037286,139.468402 211.037286,136.523739 C211.037286,131.821567 215.38105,128.782837 219.916521,128.782837 C225.072359,128.782837 229.272045,131.535793 229.272045,136.90239 C229.272045,140.844879 226.646497,143.551397 223.210065,145.356536 L227.601458,150.723132 C228.269455,149.48835 228.652868,148.063053 228.843384,146.686575 L234.713657,146.686575 C234.380254,149.725305 233.330035,152.669967 231.421303,155.044272 L238.341796,163.069757 L230.03649,163.069757 L227.266865,159.697625 L227.266865,159.697625 Z" id="Fill-86" fill="#869AB8"></path>
            <path d="M254.714261,151.813836 C254.714261,156.325492 258.247142,158.084193 262.257503,158.084193 C264.88186,158.084193 268.892221,157.323319 268.892221,153.855929 C268.892221,150.200404 263.784012,149.581227 258.772251,148.253569 C253.711671,146.923529 248.604652,144.976694 248.604652,138.61227 C248.604652,131.679871 255.192933,128.355367 261.35017,128.355367 C268.462369,128.355367 275.00183,131.441726 275.00183,139.276695 L267.747935,139.276695 C267.507408,135.1937 264.596086,134.149434 261.015577,134.149434 C258.629364,134.149434 255.860929,135.146071 255.860929,137.995475 C255.860929,140.607925 257.482696,140.940137 266.028528,143.123927 C268.509998,143.740722 276.148498,145.308907 276.148498,153.002179 C276.148498,159.223716 271.230804,163.877069 261.970538,163.877069 C254.428487,163.877069 247.362726,160.172724 247.459175,151.813836 L254.714261,151.813836" id="Fill-87" fill="#869AB8"></path>
            <polyline id="Fill-88" fill="#869AB8" points="285.743358 135.430654 275.526939 135.430654 275.526939 129.161488 303.453007 129.161488 303.453007 135.430654 293.23778 135.430654 293.23778 163.069757 285.743358 163.069757 285.743358 135.430654"></polyline>
            <path d="M312.475129,144.501595 L320.685176,144.501595 C324.02635,144.501595 325.841015,143.076298 325.841015,139.657727 C325.841015,136.380852 324.02635,134.956745 320.685176,134.956745 L312.475129,134.956745 L312.475129,144.501595 Z M304.979517,129.161488 L323.358353,129.161488 C329.467962,129.161488 333.335436,133.388561 333.335436,138.518203 C333.335436,142.50594 331.711288,145.498232 327.940262,147.018787 L327.940262,147.114045 C331.61603,148.063053 332.666249,151.625701 332.905585,155.044272 C333.048472,157.181623 333.000843,161.170551 334.336836,163.069757 L326.842414,163.069757 C325.936273,160.932406 326.031531,157.655532 325.649308,154.949014 C325.124198,151.386366 323.740576,149.820563 319.969551,149.820563 L312.475129,149.820563 L312.475129,163.069757 L304.979517,163.069757 L304.979517,129.161488 L304.979517,129.161488 Z" id="Fill-89" fill="#869AB8"></path>
            <path d="M345.649912,149.96345 L354.480327,149.96345 L350.185382,137.520376 L350.090125,137.520376 L345.649912,149.96345 Z M346.365537,129.161488 L354.051666,129.161488 L366.797184,163.069757 L359.015797,163.069757 L356.437878,155.519371 L343.693551,155.519371 L341.020374,163.069757 L333.429504,163.069757 L346.365537,129.161488 L346.365537,129.161488 Z" id="Fill-90" fill="#869AB8"></path>
            <polyline id="Fill-91" fill="#869AB8" points="374.911973 135.430654 364.695555 135.430654 364.695555 129.161488 392.621623 129.161488 392.621623 135.430654 382.405204 135.430654 382.405204 163.069757 374.911973 163.069757 374.911973 135.430654"></polyline>
            <polyline id="Fill-92" fill="#869AB8" points="401.691373 135.430654 391.476145 135.430654 391.476145 129.161488 419.401023 129.161488 419.401023 135.430654 409.185795 135.430654 409.185795 163.069757 401.691373 163.069757 401.691373 135.430654"></polyline>
            <path d="M436.20334,157.606712 C442.934507,157.606712 445.464797,151.909094 445.464797,146.257914 C445.464797,140.322151 442.934507,134.623342 436.20334,134.623342 C429.472173,134.623342 426.943073,140.322151 426.943073,146.257914 C426.943073,151.909094 429.472173,157.606712 436.20334,157.606712 Z M436.20334,128.355367 C446.753161,128.355367 452.958028,136.191527 452.958028,146.257914 C452.958028,156.0421 446.753161,163.877069 436.20334,163.877069 C425.653518,163.877069 419.447461,156.0421 419.447461,146.257914 C419.447461,136.191527 425.653518,128.355367 436.20334,128.355367 L436.20334,128.355367 Z" id="Fill-93" fill="#869AB8"></path>
            <polyline id="Fill-94" fill="#869AB8" points="455.678834 129.161488 463.126818 129.161488 477.351216 151.909094 477.446474 151.909094 477.446474 129.161488 484.463415 129.161488 484.463415 163.069757 476.968993 163.069757 462.791033 140.36978 462.695775 140.36978 462.695775 163.069757 455.678834 163.069757 455.678834 129.161488"></polyline>
        </g>
    </g>
</svg>