<?xml version="1.0" encoding="UTF-8"?>
<svg width="512px" height="512px" viewBox="0 0 512 512" version="1.1" xmlns="http://www.w3.org/2000/svg" xmlns:xlink="http://www.w3.org/1999/xlink">
    <title>DEIF</title>
    <g id="DEIF" stroke="none" stroke-width="1" fill="none" fill-rule="evenodd">
        <g id="deif-group-seeklogo.com" transform="translate(0.000000, 115.000000)" fill-rule="nonzero">
            <polygon id="Path" fill="#869AB8" points="0.225799338 0.395148842 511.94355 0.395148842 511.94355 282.644322 0.225799338 282.644322"></polygon>
            <ellipse id="Oval" fill="#FFFFFF" cx="254.645204" cy="140.560088" rx="233.307166" ry="118.093054"></ellipse>
            <path d="M99.1259096,82.9812569 L138.471444,82.9812569 C145.188975,82.9812569 165.341566,82.9812569 176.857332,93.537376 C189.332745,104.093495 190.292393,123.286439 187.413451,140.560088 C179.736273,177.026681 155.745094,196.219625 132.713561,200.058214 C127.915325,201.017861 123.117089,201.017861 110.641676,201.017861 L74.1750827,201.017861 C74.1750827,201.017861 99.1259096,82.9812569 99.1259096,82.9812569 Z M103.924146,181.824917 L113.520617,181.824917 C124.076736,181.824917 133.673208,180.86527 143.26968,173.188093 C155.745094,163.591621 159.583682,145.358324 161.502977,139.600441 C165.341566,123.286439 162.462624,106.972437 148.067916,103.133848 C143.26968,101.214553 136.55215,101.214553 122.157442,101.214553 L103.924146,181.824917 Z M212.420728,82.0216097 L292.127894,82.0216097 L288.289305,101.214553 L234.549063,101.214553 L228.79118,129.044322 L278.692834,129.044322 L274.854245,148.237266 L223.992944,148.237266 L217.275413,179.905623 L272.93495,179.905623 L269.096362,200.058214 L187.469901,200.058214 C187.469901,200.058214 212.420728,82.0216097 212.420728,82.0216097 Z M314.14333,82.0216097 L340.053804,82.0216097 L315.102977,201.074311 L289.192503,201.074311 L314.14333,82.0216097 Z M362.182139,82.9812569 L439.010364,82.9812569 L435.171775,102.174201 L384.310474,102.174201 L378.552591,130.963616 L426.53495,130.963616 L422.696362,151.116207 L374.714002,151.116207 L364.101433,201.977508 L336.271665,201.977508 L362.182139,82.9812569 Z" id="Shape" fill="#869AB8"></path>
        </g>
    </g>
</svg>