<?xml version="1.0" encoding="UTF-8"?>
<svg width="512px" height="512px" viewBox="0 0 512 512" version="1.1" xmlns="http://www.w3.org/2000/svg" xmlns:xlink="http://www.w3.org/1999/xlink">
    <title>Generac</title>
    <g id="Generac" stroke="none" stroke-width="1" fill="none" fill-rule="evenodd">
        <g id="generac-power-systems-seeklogo.com" transform="translate(3.000000, 197.000000)" fill="#869AB8" fill-rule="nonzero">
            <path d="M35.5294509,29.214975 L70.5537438,29.214975 C70.5537438,33.7613977 70.6379368,38.2236273 70.6379368,42.8542429 C70.6379368,57.1670549 68.1121464,66.4282862 54.6412646,66.4282862 C51.9470882,66.5124792 49.1687188,66.5124792 46.4745424,66.5124792 L37.2133111,66.4282862 L29.130782,66.3440932 C14.144426,66.3440932 4.54642263,64.4918469 3.87287854,42.4332779 C3.78868552,39.7391015 3.70449251,36.9607321 3.70449251,34.2665557 C3.70449251,11.7028286 5.0515807,1.09450915 24.7527454,0.757737105 L36.371381,0.50515807 C37.8026622,0.420965058 39.2339434,0.420965058 40.6652246,0.420965058 C44.1171381,0.420965058 47.6532446,0.589351082 51.1051581,0.757737105 C63.6499168,1.26289517 70.3853577,4.54642263 70.3853577,22.2269551 L70.3853577,23.4056572 L55.2306156,23.4056572 C55.0622296,20.7956739 54.8096506,18.0173045 52.6206323,17.0911814 C50.515807,16.0808652 48.2425957,16.0808652 46.0535774,16.0808652 C40.0758735,16.0808652 34.0139767,15.9966722 28.0362729,15.9966722 C20.0379368,15.9966722 19.6169717,21.80599 19.6169717,30.8988353 L19.6169717,36.9607321 C19.6169717,44.7064892 20.4589018,49.7580699 27.3627288,50.936772 C29.214975,51.1893511 31.1514143,51.1893511 33.0036606,51.1893511 C37.6342762,51.1893511 42.2648918,51.2735441 46.8955075,51.2735441 C51.5261231,51.2735441 55.3148087,50.0106489 55.3148087,43.359401 C55.3148087,42.7700499 55.3148087,42.0965058 55.2306156,41.5071547 L35.5294509,41.5071547 L35.5294509,29.214975 Z" id="Path"></path>
            <polygon id="Path" points="81.1620632 2.1890183 136.561065 2.1890183 136.561065 16.5018303 96.3168053 16.5018303 96.3168053 27.2785358 133.866889 27.2785358 133.866889 39.7391015 96.3168053 39.7391015 96.3168053 50.852579 136.561065 50.852579 136.561065 65.165391 81.1620632 65.165391"></polygon>
            <polygon id="Path" points="215.870882 65.165391 191.791681 65.165391 161.903161 17.8489185 161.903161 65.165391 147.674542 65.165391 147.674542 2.1890183 171.753744 2.1890183 201.642263 49.3371048 201.642263 2.1890183 215.870882 2.1890183"></polygon>
            <polygon id="Path" points="228.836606 2.1890183 284.235607 2.1890183 284.235607 16.5018303 243.991348 16.5018303 243.991348 27.2785358 281.541431 27.2785358 281.541431 39.7391015 243.991348 39.7391015 243.991348 50.852579 284.235607 50.852579 284.235607 65.165391 228.836606 65.165391"></polygon>
            <path d="M295.433278,2.1890183 L341.655241,2.1890183 C353.35807,2.1890183 358.241265,6.90382696 358.241265,22.1427621 C358.241265,26.5207987 357.988686,31.3198003 356.136439,35.1084859 C354.2,38.8971714 350.663894,39.7391015 347.464559,41.0861897 C353.779035,42.0965058 357.56772,44.4539101 357.56772,53.1257903 L357.56772,65.165391 L342.244592,65.165391 L342.244592,59.1034942 C342.244592,52.1996672 341.992013,49.0003328 335.677537,49.0003328 L310.419634,49.0003328 L310.419634,65.165391 L295.264892,65.165391 L295.264892,2.1890183 L295.433278,2.1890183 Z M333.404326,33.6772047 L335.340765,33.6772047 C342.412978,33.6772047 343.002329,31.9091514 343.002329,24.9211314 C342.918136,21.637604 342.833943,19.0276206 340.055574,18.0173045 C338.708486,17.5121464 337.108819,17.4279534 335.76173,17.4279534 L334.583028,17.4279534 L310.58802,17.4279534 L310.58802,33.6772047 L333.404326,33.6772047 Z" id="Shape"></path>
            <path d="M385.603993,53.7151414 L380.720799,65.165391 L363.882196,65.165391 L391.581697,2.1890183 L411.956406,2.1890183 L439.066556,65.165391 L422.396339,65.165391 L417.681531,53.7151414 L385.603993,53.7151414 Z M401.516473,15.7440932 L390.908153,40.6652246 L412.208985,40.6652246 L401.516473,15.7440932 Z" id="Shape"></path>
            <path d="M505.242263,41.1703827 C505.242263,42.0123128 505.326456,42.9384359 505.326456,43.9487521 C505.326456,61.5450915 501.369384,64.828619 486.7198,65.5863561 C482.846922,65.7547421 479.058236,65.8389351 475.185358,65.8389351 L465.839933,65.6705491 C453.210982,65.5021631 443.444592,64.997005 442.26589,45.2958403 C441.929118,40.8336106 441.844925,36.5397671 441.844925,32.0775374 C441.844925,13.7234609 444.118136,3.53610649 460.030616,2.1890183 C464.745424,1.68386023 469.460233,1.68386023 474.175042,1.68386023 C480.321131,1.68386023 486.635607,1.68386023 492.781697,2.52579035 C503.137438,3.95707155 504.568719,13.2183028 504.737105,24.4159734 L490.087521,24.4159734 C490.087521,18.2698835 487.477537,17.4279534 483.099501,17.1753744 C481.66822,17.0911814 480.236938,17.0911814 478.88985,17.0911814 L474.6802,17.0911814 L467.018636,17.1753744 C457.168053,17.2595674 457.08386,21.80599 457.08386,33.6772047 C457.08386,46.4745424 457.589018,49.9264559 468.365724,50.263228 L474.259235,50.431614 C476.869218,50.431614 479.395008,50.347421 482.004992,50.347421 C487.140765,50.347421 490.424293,49.7580699 490.424293,41.1703827 L505.242263,41.1703827 Z" id="Path"></path>
            <polygon id="Path" points="0.336772047 96.9903494 505.494842 117.280865 505.494842 74.1740433 0.336772047 94.296173"></polygon>
        </g>
    </g>
</svg>