<?xml version="1.0" encoding="UTF-8"?>
<svg width="512px" height="512px" viewBox="0 0 512 512" version="1.1" xmlns="http://www.w3.org/2000/svg" xmlns:xlink="http://www.w3.org/1999/xlink">
    <title>Mahindra_1</title>
    <defs>
        <polygon id="path-1" points="0.0863189109 0.785786657 396.121379 0.785786657 396.121379 231.55919 0.0863189109 231.55919"></polygon>
        <polygon id="path-3" points="0.720134003 0.288906661 235.123752 0.288906661 235.123752 48.7835426 0.720134003 48.7835426"></polygon>
    </defs>
    <g id="Mahindra_1" stroke="none" stroke-width="1" fill="none" fill-rule="evenodd">
        <g id="mahindra-seeklogo.com-2" transform="translate(3.000000, 139.000000)">
            <g id="Group-5">
                <mask id="mask-2" fill="white">
                    <use xlink:href="#path-1"></use>
                </mask>
                <g id="Clip-2"></g>
                <path d="M294.807854,64.4215296 C289.945222,74.3988574 284.147468,83.9148059 279.831523,94.1502178 C278.522353,98.2175649 276.377328,103.11972 279.126585,107.068839 C282.003882,109.550194 286.032098,109.074397 289.513627,108.613018 C302.777966,106.636296 315.626536,102.600668 328.184499,97.958039 C340.686355,93.2995497 352.312074,86.1625883 361.94958,76.9061657 C367.704174,71.5729091 370.998679,63.9601503 371.890641,56.2306048 C372.192757,47.0765507 366.813651,38.755863 359.689463,33.4226064 C348.814719,24.9015071 336.053907,18.6296319 322.732021,15.0957547 C312.057249,30.7105611 303.842566,47.8248503 294.807854,64.4215296 Z M226.198706,8.59318986 C205.295143,11.6512697 184.492286,16.1929724 164.610163,23.4294187 C150.741591,28.6213779 137.189522,37.7047832 131.161585,51.7624345 C127.852694,58.6961006 128.802202,67.0744607 132.542688,73.6346979 C135.189801,79.1135774 140.771757,83.5673296 147.116197,82.8608425 C153.849072,81.7794848 159.761918,77.9875235 165.775468,74.9741398 C175.601438,69.1795038 186.060412,64.593105 196.159725,59.3016609 C228.703393,43.2413351 261.488754,27.4967658 295.527178,14.7929745 C298.951161,13.5544594 302.619715,12.6879313 305.540172,10.3824765 C279.327996,6.33098938 252.597906,6.74911439 226.198706,8.59318986 L226.198706,8.59318986 Z M204.316862,5.62450229 C226.615914,0.981872869 249.51776,0.30278018 272.222511,1.03810347 C290.750865,2.36601083 309.453296,3.34644189 327.537107,7.96023511 C347.059568,12.918621 365.862704,21.7569186 381.141151,35.0359922 C386.433939,39.4926281 391.024666,44.9426714 393.571074,51.4452362 C398.750209,63.5694197 395.685888,78.089892 387.586296,88.1825647 C381.543973,95.6223062 374.192479,102.124871 365.848317,106.839591 C350.454778,114.956983 333.780842,120.347912 316.790403,123.909184 C289.91501,130.080132 262.235413,132.920499 234.672346,132.157781 C236.141206,127.037913 239.391113,122.771596 242.094333,118.273147 C249.619904,105.742373 258.179863,93.8777157 265.993163,81.534377 C281.831244,58.4077385 299.958215,37.0127143 316.934268,14.7353021 C303.209561,24.164742 291.901784,36.5801712 280.061706,48.1723266 C269.903409,59.1445036 259.057438,69.5240965 249.76233,81.2618748 C237.174156,97.6249808 224.558647,113.99097 212.531545,130.757783 C202.286929,129.95037 192.030804,128.234615 182.075356,125.711447 C188.97943,114.308169 198.92193,105.252158 207.999802,95.6223062 C215.797277,87.5899806 224.111227,80.0795903 232.154711,72.2938143 C250.583798,55.8845703 270.581013,41.3813997 290.648721,27.0786407 C296.491072,22.8829725 302.76358,19.2207742 308.216058,14.5060542 C291.614054,21.6992462 275.932785,30.8850201 260.150811,39.721876 C239.045837,51.4293763 219.696015,66.0651934 201.323035,81.6497218 C186.982586,93.1842049 173.616103,105.85916 160.438082,118.676854 C158.682931,120.507953 156.064591,119.008471 154.050483,118.561509 C138.282895,112.981703 124.025888,102.759268 114.199919,89.1485776 C107.452658,80.2079114 106.99229,67.6079305 111.078052,57.4575855 C117.997951,42.6054967 131.30545,31.7919189 145.504911,24.2526924 C163.977158,14.9962698 184.161396,9.74663817 204.316862,5.62450229 L204.316862,5.62450229 Z" id="Fill-1" fill="#869AB8" mask="url(#mask-2)"></path>
                <path d="M0,177.140823 C0.704937772,172.168019 2.69027272,164.986362 8.96278025,165.217051 C14.7605338,165.420347 21.349544,163.762265 26.5862246,166.803043 C28.2982163,170.522914 27.0609786,175.006944 27.7083704,179.016619 C30.9453296,174.806532 31.4056971,168.129508 36.5560588,165.721685 C43.0443636,164.71386 49.8060116,164.78595 56.2943164,165.750521 C62.3222537,167.250004 64.0774049,173.766987 65.7030777,178.928668 C67.7603451,175.699013 69.1414476,172.110347 70.9541448,168.750929 C73.0545716,164.611491 78.4782765,165.332396 82.348241,165.146403 C87.7287865,165.6222 94.2314777,164.238062 98.4754909,168.43373 C103.007234,172.426103 103.151099,178.987782 103.208644,184.580565 C103.007234,198.494035 103.410055,212.408947 103.007234,226.320975 C103.02162,232.709637 95.1378263,230.431577 91.0232916,231.138064 C87.2540324,230.734357 80.7369547,232.564014 79.4853305,227.589768 C78.2768657,214.4419 79.888152,201.132548 78.7516197,187.983237 C77.4424496,182.18716 69.8895449,184.25039 65.5448263,183.515067 C65.386575,196.866231 65.6023723,210.215953 65.4728939,223.568559 C65.3721885,225.90285 65.4009615,228.916234 63.1278968,230.301814 C56.8697758,232.118495 50.1656737,231.727764 43.8068473,230.631988 C42.0948556,229.276687 41.3755313,227.085135 41.4618502,224.951255 C41.1741205,214.196792 41.8358988,203.41205 41.21728,192.669121 C40.8000719,189.772524 41.0158692,185.92289 38.0378667,184.321039 C34.7145887,183.34205 31.1755133,183.773151 27.7659163,183.529485 C26.7444759,197.77313 27.7371434,212.075889 27.2767758,226.336835 C27.1760705,228.023753 27.1185245,230.718497 24.6872085,230.503667 C18.1845172,231.1669 11.62428,230.963605 5.15036168,230.156191 C3.17941322,214.586081 4.7475401,198.767979 4.51735634,183.109918 C4.54612931,180.298388 1.64005931,178.958946 0,177.140823" id="Fill-3" fill="#869AB8" mask="url(#mask-2)"></path>
                <path d="M172.220614,177.357095 C174.148403,173.234959 174.925273,166.732394 180.320205,165.880284 C186.752402,164.971944 193.383133,165.029616 199.727573,166.471426 C201.05113,175.324142 200.488618,184.321039 200.705854,193.247287 C202.692628,190.190649 203.827722,186.180974 207.093454,184.220112 C212.301361,182.851834 217.811385,183.427117 223.134385,183.614552 C228.644409,183.760175 232.226643,189.425048 231.982073,194.557893 C231.881368,206.539337 232.356122,218.551059 231.608024,230.516644 C225.206039,230.963605 218.77528,231.07895 212.373294,230.458971 C211.753236,220.51048 212.878259,210.504315 211.769061,200.614938 C211.351853,196.260671 205.325355,195.957891 202.345914,197.917311 C200.389352,200.139141 200.432511,203.282287 200.317419,206.077958 C200.174993,214.21121 200.691468,222.355997 199.98653,230.458971 C193.096842,231.540329 185.987041,232.145889 179.11174,230.574316 C176.809903,229.132506 177.516279,225.875456 177.241497,223.582977 C177.470242,210.549012 177.975208,197.515046 177.601159,184.48108 C178.060088,180.903948 174.477853,179.289121 172.220614,177.357095" id="Fill-4" fill="#869AB8" mask="url(#mask-2)"></path>
            </g>
            <path d="M244.335084,165.93052 C250.842277,164.493943 257.554399,164.774142 264.119318,165.752616 C264.999643,169.963016 264.853885,174.29202 263.975002,178.502421 C257.323493,179.497202 250.553646,179.362291 243.900694,178.413468 C242.961199,174.262369 243.236842,170.007492 244.335084,165.93052" id="Fill-6" fill="#869AB8"></path>
            <g id="Group-10" transform="translate(111.993254, 164.935519)" fill="#869AB8">
                <path d="M256.27841,30.5359679 C253.370082,31.6244903 249.021987,31.8421948 248.129332,35.4996302 C246.934326,39.7230973 246.762994,44.77239 249.295543,48.5473858 C251.887122,52.116288 256.782328,50.3615899 260.509883,50.7810338 C260.555955,40.1875335 260.684095,29.5780682 260.46813,18.9831164 C258.654024,22.6695791 257.602995,26.660828 256.27841,30.5359679 Z M255.544129,12.0165728 C257.070281,7.67699673 258.479812,1.15892438 263.952364,0.666912244 C269.508423,0.230051906 275.182542,-0.000714850555 280.682449,0.984760795 C285.230671,2.49417857 283.705959,8.34462383 284.0659,12.0310865 C283.403608,29.8828544 283.705959,47.7476847 283.518789,65.6154176 C276.033444,65.6865344 268.530821,65.8897253 261.044036,65.6575071 C260.639462,61.8128459 260.509883,57.9667333 260.46813,54.106107 C259.070117,57.2976548 257.87511,60.6212767 255.918468,63.5094895 C253.830807,66.5733174 249.698677,65.6429935 246.559987,66.0493752 C240.957856,65.9332662 234.048417,67.0087263 230.08906,62.0145854 C223.667702,54.685201 226.288077,44.1497552 225.697772,35.2659607 C224.949094,28.6056548 228.735679,21.6086326 235.198791,19.4765799 C243.608466,16.8496125 252.591168,19.041171 261.229766,17.9671622 C259.388305,15.9483159 257.070281,14.3097268 255.544129,12.0165728 L255.544129,12.0165728 Z" id="Fill-7"></path>
                <path d="M0.431929904,30.316812 C1.61253831,25.8770919 2.80754437,19.6362299 7.73154528,18.1108471 C19.6672083,17.2414805 31.660462,18.2574348 43.6105226,18.2719484 C49.0816347,17.894594 54.7543141,22.2486837 54.5671445,28.0381717 C54.6967235,40.2876776 54.6535305,52.5952379 54.077624,64.8157165 C48.2321726,67.2554581 41.2205105,65.6284799 34.9431292,65.5123708 C33.9208951,59.4746997 34.309632,53.3368845 34.3384274,47.2542212 C31.8908246,46.1656987 29.2848475,45.0046081 26.5492914,45.7302897 C23.7129517,45.9059047 22.0716181,49.8245855 23.828133,52.0596849 C26.9236307,53.6997253 30.5518419,53.5255617 33.9208951,54.1786752 C32.6539007,58.3861773 30.2350933,62.2192276 27.168391,65.3106313 C20.5166704,66.1219434 13.346634,67.3135126 6.8964808,64.9477905 C-3.52742755,58.1975 -0.777473827,37.7623055 12.022049,35.5126925 C19.1488924,34.859579 26.3477241,35.5852606 33.4889652,34.9031199 C33.5753512,33.9452202 33.7337255,32.0294207 33.8201115,31.0874859 C22.6907176,30.7536724 11.5469261,31.1310268 0.431929904,30.316812" id="Fill-9"></path>
            </g>
            <path d="M244.663882,183.795429 C250.13569,183.246772 256.006097,182.68219 261.29075,184.519252 C267.549755,187.92122 265.106729,196.08739 265.549616,201.891002 C264.806708,211.546799 267.149727,221.652814 264.163806,230.974206 C258.59342,230.87287 252.947314,231.554712 247.419788,230.584789 C245.362502,229.758183 246.362571,226.835386 245.919684,225.098211 C245.63395,216.933489 246.534012,208.696385 245.492511,200.573644 C245.191062,197.766659 242.232285,196.853194 240.276435,195.435949 C241.147924,191.454923 241.160782,186.488051 244.663882,183.795429" id="Fill-11" fill="#869AB8"></path>
            <g id="Group-16" transform="translate(270.820050, 183.261688)">
                <mask id="mask-4" fill="white">
                    <use xlink:href="#path-3"></use>
                </mask>
                <g id="Clip-13"></g>
                <path d="M3.74469682,1.99934908 C5.18496482,-0.215601986 8.13751424,0.576375975 10.3699296,0.288906661 C14.5179015,0.461388249 19.1411618,-0.257285036 22.8412103,2.01372255 C26.0400456,4.05475468 25.9824348,8.22162238 26.875401,11.4987726 C28.9205816,8.10807201 30.2038604,3.93976695 33.4862312,1.5092139 C38.9736523,-0.459950903 45.0227779,0.517444765 50.7406419,0.648243303 C56.3735301,0.475761715 58.9933776,6.76990235 58.9501695,11.5433303 C59.1374044,23.4445599 59.108599,35.3443522 58.8939991,47.2470191 C52.4545608,47.4611838 46.0165628,47.4468103 39.5785648,47.2901395 C38.6567933,37.4155686 39.8378131,27.467693 38.9592496,17.6074955 C37.1589146,12.305124 30.2729932,13.9868195 25.9824348,13.8287114 C25.7217463,23.1269063 25.9824348,32.427976 25.9392268,41.7276083 C25.5071464,43.4667976 26.4879689,46.3831738 24.3966998,47.2168348 C19.3557617,47.6063558 14.2730559,47.4324368 9.23211792,47.346196 C6.62523283,47.8363312 6.36598459,44.9041442 6.20755511,43.107461 C5.67321568,34.5552489 6.65403819,25.9441056 5.83308543,17.406267 C5.64585059,14.6465616 2.57807973,13.7985271 0.720134003,12.375554 C1.36825461,8.85549222 1.61310017,5.01777688 3.74469682,1.99934908" id="Fill-12" fill="#869AB8" mask="url(#mask-4)"></path>
                <path d="M181.142507,13.0525442 C181.992265,8.32367399 183.14448,0.835098358 189.32323,0.763231029 C200.629333,0.475761715 211.964243,0.517444765 223.270346,0.747420217 C228.671351,0.618059025 233.17939,4.1697424 235.123752,9.04234728 L235.123752,48.8697834 L216.112214,48.8697834 C213.476524,42.5181489 214.74396,35.547018 214.211061,28.8762926 C210.668001,28.0871893 206.289587,27.3239583 203.610688,30.4861208 C201.867964,36.7242049 210.17831,34.9145856 213.361303,37.5880502 C213.001236,42.1300653 209.270941,45.7234318 206.260781,48.8697834 L189.438451,48.8697834 C177.138562,43.5961588 178.261971,21.6478767 191.426021,18.3405422 C198.872206,17.2769058 206.448016,18.2988592 213.93741,17.4925078 C213.807786,16.4863652 213.548537,14.4611438 213.418913,13.4391904 C202.660111,13.4693747 191.872504,14.0586868 181.142507,13.0525442" id="Fill-14" fill="#869AB8" mask="url(#mask-4)"></path>
                <path d="M130.344255,10.2195341 C130.877154,7.01425127 131.466223,3.04861208 134.56424,1.28067579 C139.605178,0.332027058 144.890961,0.403894386 149.9319,1.32235885 C153.503764,1.89873482 154.655979,5.77813321 156.426068,8.38116785 C158.343065,5.77813321 159.610501,1.85561442 163.225573,1.23611805 C168.554565,0.231412798 173.998778,1.02051607 179.342172,1.49627778 C177.873099,5.51941083 176.951327,10.679485 172.904174,12.9361191 C167.315934,14.2167949 161.511654,13.354387 155.836998,13.2523354 C155.304099,22.2659357 155.260891,31.3068457 155.345867,40.3333821 C155.507177,43.3072522 154.540757,46.1531984 153.402945,48.8697834 L148.016343,48.8697834 C144.012398,48.6268718 140.037258,48.1511101 136.105327,47.4611838 C134.737072,37.1855931 135.774065,26.8079509 135.097139,16.4863652 C133.427868,14.5473846 129.78111,13.2825197 130.344255,10.2195341" id="Fill-15" fill="#869AB8" mask="url(#mask-4)"></path>
            </g>
        </g>
    </g>
</svg>