<?xml version="1.0" encoding="UTF-8"?>
<svg width="512px" height="512px" viewBox="0 0 512 512" version="1.1" xmlns="http://www.w3.org/2000/svg" xmlns:xlink="http://www.w3.org/1999/xlink">
    <title>TVSM_1</title>
    <defs>
        <polygon id="path-1" points="0.0374465753 0.578275977 136.573277 0.578275977 136.573277 132.534602 0.0374465753 132.534602"></polygon>
    </defs>
    <g id="TVSM_1" stroke="none" stroke-width="1" fill="none" fill-rule="evenodd">
        <g id="TVS" transform="translate(1.000000, 137.000000)">
            <g id="Group-3" transform="translate(0.000000, 105.008185)">
                <mask id="mask-2" fill="white">
                    <use xlink:href="#path-1"></use>
                </mask>
                <g id="Clip-2"></g>
                <polyline id="Fill-1" fill="#869AB8" mask="url(#mask-2)" points="15.1084449 106.579701 24.8857458 106.579701 44.5364603 30.5004631 31.8969929 30.5004631 26.7618192 45.2893242 0 45.2893242 12.6400915 0.578275977 136.573277 0.578275977 123.933186 45.2893242 95.6903545 45.2893242 99.2346729 30.4648288 87.1874855 30.4648288 69.0421233 108.004448 80.4826762 108.004448 71.7925742 132.534602 5.33239233 132.534602 15.1084449 106.579701"></polyline>
            </g>
            <polyline id="Fill-4" fill="#869AB8" points="147.635926 107.047179 139.74 135.585514 148.963077 135.585514 161.022163 237.542787 203.0209 237.542787 262.781129 135.585514 269.649444 135.585514 281.52 107.759778 215.127118 107.403478 206.900024 135.585514 215.024171 135.585514 194.65799 182.432015 191.302283 135.552384 198.170598 135.552384 206.648858 107.047179 147.635926 107.047179"></polyline>
            <path d="M403.92,111.219629 L392.887052,155.306278 L363.38421,155.306278 C363.38421,155.306278 362.855588,133.016089 333.012204,137.782973 C324.523639,140.126779 320.635832,149.697997 341.279573,153.883766 C350.888492,155.70201 380.785613,161.352112 380.785613,191.927702 C381.141777,196.552272 378.808593,237.477435 325.024767,237.477435 C318.855014,237.874415 295.721252,236.68722 286.822162,227.601616 C285.042593,232.815415 283.102439,237.477435 283.102439,237.477435 L251.94,237.477435 L263.330986,191.571918 L293.780473,191.571918 C293.780473,191.571918 304.673455,215.886955 325.617124,206.176545 C331.50507,202.759145 333.557072,196.195863 325.024767,193.705999 C318.855014,191.927702 274.00902,186.622149 274.00902,157.281192 C274.024017,150.961967 271.872039,109.086173 332.381732,109.086173 C340.567246,109.086173 360.141247,111.850678 370.464367,117.97391 C371.799044,113.233867 372.397023,111.287041 372.397023,111.287041 L403.92,111.219629" id="Fill-5" fill="#869AB8"></path>
            <path d="M266.640305,49.8896033 C266.640305,49.8896033 243.24169,87.3348658 179.267216,81.1078629 C163.866346,79.9115267 162.089347,79.9115267 162.089347,79.9115267 L155.04,83.6821617 C155.04,83.6821617 176.186792,91.5854227 198.044883,91.5854227 C219.903598,91.5854227 245.414272,87.4944193 255.285728,84.3014565 C263.974806,87.0952201 278.192049,92.284179 299.516042,86.6966516 C307.02087,87.0952201 345.52086,95.4771419 369.710638,88.8913012 C375.336763,92.284179 395.725461,89.2400487 406.929667,83.9022573 C414.433246,80.3094646 415.223786,81.1078629 415.223786,81.1078629 C415.223786,81.1078629 440.003818,75.2207785 480.333219,89.3403214 C483.146594,95.4771419 483.146594,95.4771419 483.146594,95.4771419 L478.55622,97.8717063 L510,97.8717063 L510,91.4857806 C510,91.4857806 410.878623,61.0514145 409.298791,61.0514145 C406.929667,58.3566623 401.400877,52.7691349 408.113293,46.7817777 C410.582249,44.3865826 419.466622,39.5974536 429.686864,53.9654712 C434.177407,56.7604962 439.458489,59.2553335 439.458489,59.2553335 C439.458489,59.2553335 448.787112,57.6585367 450.124229,53.9654712 C448.39465,50.273667 431.01899,28.8197061 431.01899,28.8197061 L428.354739,13.2534602 L421.54062,21.9841294 C421.54062,21.9841294 412.756078,12.1845145 395.873336,20.6376993 C389.256384,23.6313779 358.031609,51.6673956 334.661696,53.9654712 C301.781591,55.5074017 283.775746,30.0034294 266.640305,49.8896033" id="Fill-6" fill="#869AB8"></path>
            <path d="M187.68,34.2012256 C187.68,34.2012256 194.587264,30.6773765 203.099441,34.7883276 C216.798579,40.0741012 220.500982,53.5823957 233.459392,52.9952937 C248.350892,51.0663328 255.838828,48.5904823 274.38,37.9960448 C266.722081,38.0146044 228.452339,38.0455371 228.452339,38.0455371 C228.452339,38.0455371 217.732245,28.1229571 206.36634,26.5651881 C199.276065,25.8661099 191.347041,31.638145 187.68,34.2012256" id="Fill-7" fill="#869AB8"></path>
            <path d="M421.26,11.6251059 C421.26,11.6251059 420.825786,0 399.218785,0 C394.899134,0 382.950432,1.04347031 359.056778,16.4657871 C354.480347,19.8184647 345.374343,25.0221191 345.374343,25.0221191 L355.750502,23.5583967 C355.750502,23.5583967 355.243814,34.1661814 323.34,45.3442636 C323.34,46.8640196 323.503689,47.2861395 323.503689,47.2861395 C323.503689,47.2861395 338.909861,54.5269269 383.841977,19.9218155 C388.065414,16.8206666 402.104591,7.92751039 421.26,11.6251059" id="Fill-8" fill="#869AB8"></path>
        </g>
    </g>
</svg>