<svg id="Capa_1" enable-background="new 0 0 512 512" height="512" viewBox="0 0 512 512" width="512" xmlns="http://www.w3.org/2000/svg"><g><path d="m497 179.609c8.284 0 15-6.716 15-15v-60.056c0-8.284-6.716-15-15-15h-64.594v-44.553c0-8.284-6.716-15-15-15h-92.812c-8.284 0-15 6.716-15 15v44.553h-107.188v-44.553c0-8.284-6.716-15-15-15h-92.812c-8.284 0-15 6.716-15 15v44.553h-64.594c-8.284 0-15 6.716-15 15v60.056c0 8.284 6.716 15 15 15h19.915v212.335h-19.915c-8.284 0-15 6.716-15 15v60.056c0 8.284 6.716 15 15 15h482c8.284 0 15-6.716 15-15v-60.056c0-8.284-6.716-15-15-15h-19.915v-212.335zm-157.406-119.609h62.812v29.553h-62.812zm-230 0h62.812v29.553h-62.812zm-79.594 59.553h452v30.056h-452zm452 332.447h-452v-30.056h452zm-34.915-60.056h-382.17v-212.335h382.17z"/><path d="m216.588 310.115h34.676l-2.62 5.88-24.363 21.244c-6.244 5.445-6.892 14.92-1.447 21.164 2.966 3.401 7.128 5.142 11.312 5.142 3.497 0 7.01-1.216 9.853-3.694l61.273-53.43c4.714-4.11 6.382-10.713 4.188-16.569s-7.792-9.736-14.046-9.736h-30.779l2.462-5.525 22.304-17.48c6.52-5.11 7.663-14.538 2.554-21.059-5.11-6.522-14.54-7.663-21.06-2.554l-63.559 49.811c-5.035 3.946-7.014 10.652-4.926 16.7 2.086 6.048 7.78 10.106 14.178 10.106z"/><path d="m353.806 266.125h47.891c8.284 0 15-6.716 15-15s-6.716-15-15-15h-47.891c-8.284 0-15 6.716-15 15s6.716 15 15 15z"/><path d="m110.304 271.125h8.945v8.945c0 8.284 6.716 15 15 15s15-6.716 15-15v-8.945h8.945c8.284 0 15-6.716 15-15s-6.716-15-15-15h-8.945v-8.945c0-8.284-6.716-15-15-15s-15 6.716-15 15v8.945h-8.945c-8.284 0-15 6.716-15 15s6.716 15 15 15z"/></g></svg>