<svg id="Layer_1" enable-background="new 0 0 256 256" height="512" viewBox="0 0 256 256" width="512" xmlns="http://www.w3.org/2000/svg"><g><path d="m29.023 130.5c-1.381 0-2.5-1.119-2.5-2.5 0-55.955 45.522-101.478 101.477-101.478 1.381 0 2.5 1.119 2.5 2.5s-1.119 2.5-2.5 2.5c-53.198 0-96.477 43.279-96.477 96.478 0 1.381-1.119 2.5-2.5 2.5z" fill="#ebe7f2"/><path d="m128 192.574c-35.606 0-64.574-28.968-64.574-64.574s28.968-64.574 64.574-64.574 64.574 28.968 64.574 64.574-28.968 64.574-64.574 64.574zm0-124.148c-32.849 0-59.574 26.725-59.574 59.574s26.725 59.574 59.574 59.574 59.574-26.724 59.574-59.574-26.725-59.574-59.574-59.574z" fill="#ebe7f2"/><g fill="#846f75"><path d="m198.366 66.827c-14.604-16.784-34.703-27.813-56.596-31.054-1.363-.204-2.637.742-2.839 2.106-.202 1.366.741 2.637 2.107 2.839 42.871 6.348 75.2 43.87 75.2 87.281 0 48.654-39.583 88.237-88.237 88.237-43.411 0-80.933-32.329-87.281-75.199-.203-1.366-1.475-2.313-2.839-2.106-1.366.202-2.309 1.473-2.107 2.839 3.242 21.893 14.271 41.992 31.054 56.595 16.951 14.749 38.676 22.872 61.173 22.872 51.411 0 93.237-41.826 93.237-93.237-.001-22.497-8.123-44.222-22.872-61.173z"/><path d="m128 182.116c29.84 0 54.116-24.276 54.116-54.116s-24.276-54.116-54.116-54.116-54.116 24.276-54.116 54.116 24.276 54.116 54.116 54.116zm0-103.232c27.083 0 49.116 22.033 49.116 49.116s-22.033 49.116-49.116 49.116-49.116-22.033-49.116-49.116 22.033-49.116 49.116-49.116z"/><path d="m128 143.904c8.77 0 15.904-7.135 15.904-15.904s-7.134-15.904-15.904-15.904-15.904 7.134-15.904 15.904 7.134 15.904 15.904 15.904zm0-26.808c6.012 0 10.904 4.892 10.904 10.904s-4.892 10.904-10.904 10.904-10.904-4.892-10.904-10.904 4.892-10.904 10.904-10.904z"/><path d="m128 105.37c4.728 0 8.573-3.846 8.573-8.573s-3.846-8.573-8.573-8.573-8.573 3.846-8.573 8.573 3.845 8.573 8.573 8.573zm0-12.146c1.97 0 3.573 1.603 3.573 3.573s-1.603 3.573-3.573 3.573-3.573-1.603-3.573-3.573 1.603-3.573 3.573-3.573z"/><path d="m128 150.63c-4.728 0-8.573 3.846-8.573 8.573s3.846 8.573 8.573 8.573 8.573-3.846 8.573-8.573-3.845-8.573-8.573-8.573zm0 12.146c-1.97 0-3.573-1.603-3.573-3.573s1.603-3.573 3.573-3.573 3.573 1.603 3.573 3.573-1.603 3.573-3.573 3.573z"/><path d="m159.203 136.573c4.728 0 8.573-3.846 8.573-8.573s-3.846-8.573-8.573-8.573-8.573 3.846-8.573 8.573 3.846 8.573 8.573 8.573zm0-12.146c1.97 0 3.573 1.603 3.573 3.573s-1.603 3.573-3.573 3.573-3.573-1.603-3.573-3.573 1.603-3.573 3.573-3.573z"/><path d="m105.37 128c0-4.728-3.846-8.573-8.573-8.573s-8.573 3.846-8.573 8.573 3.846 8.573 8.573 8.573 8.573-3.845 8.573-8.573zm-12.146 0c0-1.971 1.603-3.573 3.573-3.573s3.573 1.603 3.573 3.573-1.603 3.573-3.573 3.573-3.573-1.602-3.573-3.573z"/></g><path d="m55.577 130.5h-39.06c-1.381 0-2.5-1.119-2.5-2.5 0-62.851 51.132-113.983 113.983-113.983 1.381 0 2.5 1.119 2.5 2.5v39.061c0 1.381-1.119 2.5-2.5 2.5-38.556 0-69.923 31.367-69.923 69.923 0 1.38-1.119 2.499-2.5 2.499zm-36.532-5h34.073c1.297-39.328 33.053-71.085 72.382-72.382v-34.073c-58.111 1.315-105.14 48.344-106.455 106.455z" fill="#a58bc9"/></g></svg>