<svg id="Layer_1" enable-background="new 0 0 512 512" height="512" viewBox="0 0 512 512" width="512" xmlns="http://www.w3.org/2000/svg"><path d="m491.837 403.79-42.161-34.681-4.555-54.401c-.438-5.236-3.585-9.861-8.295-12.192-4.708-2.328-10.296-2.025-14.725.802l-37.101 23.69v-125.205c0-35.746-28.979-64.827-64.6-64.827h-16.188c17.538-14.126 28.788-35.757 28.788-59.976 0-42.458-34.542-77-77-77s-77 34.542-77 77c0 24.219 11.25 45.85 28.787 59.976h-16.187c-35.62 0-64.599 29.081-64.599 64.827v125.205l-37.101-23.691c-4.43-2.828-10.015-3.132-14.725-.802-4.71 2.331-7.857 6.956-8.295 12.192l-4.555 54.401-42.162 34.682c-4.058 3.338-6.074 8.557-5.313 13.756.761 5.2 4.188 9.622 9.032 11.657l50.331 21.144 19.955 50.813c1.921 4.891 6.261 8.42 11.441 9.304.841.143 1.684.213 2.521.213 4.32 0 8.481-1.868 11.356-5.201l35.661-41.335 10.189-.613-2.753 32.195c-.448 5.235 1.877 10.324 6.128 13.412 4.252 3.09 9.81 3.727 14.65 1.685l72.639-30.664 72.636 30.663c1.876.792 3.859 1.181 5.832 1.181 3.12 0 6.215-.973 8.818-2.865 4.252-3.089 6.577-8.177 6.129-13.412l-2.753-32.194 10.188.612 35.661 41.335c2.876 3.333 7.036 5.201 11.356 5.201.837 0 1.681-.07 2.521-.213 5.18-.884 9.521-4.413 11.441-9.304l19.955-50.813 50.331-21.144c4.845-2.035 8.271-6.457 9.032-11.657.763-5.199-1.252-10.418-5.31-13.756zm-235.837-373.79c25.916 0 47 21.084 47 47s-21.084 47-47 47-47-21.084-47-47 21.084-47 47-47zm-64.4 136.976h49.4v41.958c0 8.284 6.716 15 15 15 8.285 0 15-6.716 15-15v-41.958h49.4c19.078 0 34.6 15.623 34.6 34.827v124.025l-45.417-10.58-40.741-67.501c-2.715-4.499-7.587-7.249-12.842-7.249s-10.127 2.75-12.842 7.249l-40.74 67.501-45.417 10.58v-124.025c0-19.204 15.521-34.827 34.599-34.827zm-44.572 267.599c-4.041.243-7.812 2.108-10.457 5.174l-23.563 27.312-13.185-33.574c-1.48-3.768-4.42-6.778-8.152-8.346l-33.256-13.971 27.857-22.915c3.127-2.571 5.081-6.298 5.419-10.332l3.01-35.945 21.714 13.866c.383.597 52.887 61.323 52.887 61.323l-1.381 16.152zm114.806 15.481c-1.865-.787-3.85-1.181-5.834-1.181s-3.969.394-5.833 1.181l-55.573 23.46 5.139-60.102c.345-4.034-.956-8.036-3.605-11.097l-39.484-45.604 58.749-13.686c3.943-.918 7.347-3.392 9.439-6.857l31.168-51.644 31.171 51.645c2.092 3.466 5.496 5.939 9.438 6.857l58.749 13.686-39.484 45.604c-2.65 3.061-3.95 7.063-3.605 11.097l5.139 60.102zm158.495-24.915c-3.732 1.567-6.673 4.578-8.152 8.346l-13.185 33.574-23.563-27.312c-2.645-3.065-6.416-4.932-10.457-5.174l-20.892-1.256-1.381-16.152s52.504-60.727 52.887-61.324l21.714-13.865 3.01 35.944c.337 4.035 2.292 7.762 5.418 10.333l27.857 22.915z"/></svg>