<svg height="512" viewBox="0 0 64 64" width="512" xmlns="http://www.w3.org/2000/svg"><g id="transmission"><path d="m12 46a6 6 0 1 0 6 6 6.006 6.006 0 0 0 -6-6zm0 10a4 4 0 1 1 4-4 4 4 0 0 1 -4 4z"/><path d="m45 2a17.024 17.024 0 0 0 -17 17c0 .25.03.49.04.74l-16.13 22.26a10 10 0 1 0 10.09 10l21.44-16.08c.52.05 1.03.08 1.56.08a17 17 0 0 0 0-34zm-16.6 20.64a15.883 15.883 0 0 0 .73 2.4l-12.95 17.89a10.283 10.283 0 0 0 -1.98-.68zm1.68 4.5a17.164 17.164 0 0 0 6.36 6.52l-16.45 12.35a10.153 10.153 0 0 0 -2.08-2.06zm-18.08 32.86a8 8 0 1 1 8-8 8.011 8.011 0 0 1 -8 8zm9.72-10.29a9.673 9.673 0 0 0 -.69-1.98l17.4-13.05a17.492 17.492 0 0 0 2.32.76zm23.28-15.71a15 15 0 1 1 15-15 15.018 15.018 0 0 1 -15 15z"/><path d="m45 6a13 13 0 1 0 13 13 13.015 13.015 0 0 0 -13-13zm0 24a11 11 0 1 1 11-11 11.013 11.013 0 0 1 -11 11z"/><path d="m45 16a3 3 0 1 0 -3-3 3 3 0 0 0 3 3zm0-4a1 1 0 1 1 -1 1 1 1 0 0 1 1-1z"/><path d="m51 16a3 3 0 1 0 3 3 3 3 0 0 0 -3-3zm0 4a1 1 0 1 1 1-1 1 1 0 0 1 -1 1z"/><path d="m45 22a3 3 0 1 0 3 3 3 3 0 0 0 -3-3zm0 4a1 1 0 1 1 1-1 1 1 0 0 1 -1 1z"/><path d="m39 16a3 3 0 1 0 3 3 3 3 0 0 0 -3-3zm0 4a1 1 0 1 1 1-1 1 1 0 0 1 -1 1z"/></g></svg>